<svg xmlns="http://www.w3.org/2000/svg" direction="ltr" width="472" height="270" viewBox="2505.4877282425014 1133.779613091004 472 270" stroke-linecap="round" stroke-linejoin="round" data-color-mode="light" class="tl-container tl-theme__force-sRGB tl-theme__light" style="background-color: transparent;"><defs/><g transform="matrix(1, 0, 0, 1, 2505.4877, 1133.7796)" opacity="1"><g data-lovart-layer-name="SVG 2"><g transform="scale(1, 1)"><g>
<g xmlns="http://www.w3.org/2000/svg" stroke-width="2.00" fill="none" stroke-linecap="butt">
<path stroke="#bedece" vector-effect="non-scaling-stroke" d="   M 128.00 75.15   A 19.25 19.25 0.0 0 0 108.75 55.90   A 19.25 19.25 0.0 0 0 89.50 75.15   A 19.25 19.25 0.0 0 0 108.75 94.40   A 19.25 19.25 0.0 0 0 128.00 75.15"/>
<path stroke="#80a9ca" vector-effect="non-scaling-stroke" d="   M 206.34 96.62   Q 197.35 87.04 183.80 84.92   C 164.12 81.85 145.88 85.81 131.37 99.62   C 129.75 101.17 128.14 103.58 128.10 105.67   C 127.61 134.49 136.80 163.75 171.23 164.32   Q 184.30 164.54 194.10 160.29   Q 210.60 153.14 214.31 135.04   C 216.89 122.40 215.31 106.19 206.34 96.62"/>
<path stroke="#87c1e9" vector-effect="non-scaling-stroke" d="   M 114.59 200.51   C 112.29 199.03 111.38 198.32 110.72 195.84   Q 108.18 186.28 107.09 175.48   C 104.89 153.82 104.36 130.22 104.40 109.21   Q 104.41 104.45 103.35 102.46   C 98.54 93.45 85.30 96.60 85.21 106.51   Q 84.91 140.16 87.23 170.27   C 88.01 180.38 89.45 192.08 92.46 201.83   C 94.51 208.44 97.98 214.83 104.61 217.08   C 114.68 220.50 122.82 209.44 115.42 201.22   A 4.28 4.19 84.9 0 0 114.59 200.51"/>
<path stroke="#87c1e9" vector-effect="non-scaling-stroke" d="   M 367.90 119.40   A 0.43 0.43 0.0 0 0 367.47 118.97   L 363.53 118.97   A 0.43 0.43 0.0 0 0 363.10 119.40   L 363.10 151.68   A 0.43 0.43 0.0 0 0 363.53 152.11   L 367.47 152.11   A 0.43 0.43 0.0 0 0 367.90 151.68   L 367.90 119.40"/>
<path stroke="#87c1e9" vector-effect="non-scaling-stroke" d="   M 287.96 122.42   A 3.31 3.31 0.0 0 0 284.65 119.11   A 3.31 3.31 0.0 0 0 281.34 122.42   A 3.31 3.31 0.0 0 0 284.65 125.73   A 3.31 3.31 0.0 0 0 287.96 122.42"/>
<path stroke="#87c1e9" vector-effect="non-scaling-stroke" d="   M 380.64 122.43   A 3.31 3.31 0.0 0 0 377.33 119.12   A 3.31 3.31 0.0 0 0 374.02 122.43   A 3.31 3.31 0.0 0 0 377.33 125.74   A 3.31 3.31 0.0 0 0 380.64 122.43"/>
<path stroke="#87c1e9" vector-effect="non-scaling-stroke" d="   M 298.33 131.16   L 298.33 129.15   A 0.56 0.56 0.0 0 0 297.77 128.59   L 294.16 128.59   A 0.61 0.61 0.0 0 0 293.55 129.20   L 293.55 151.73   A 0.40 0.39 0.0 0 0 293.95 152.12   L 297.96 152.12   A 0.39 0.38 0.8 0 0 298.35 151.75   Q 298.49 147.52 298.34 143.52   C 298.10 137.18 299.33 131.35 307.04 133.22   A 0.38 0.37 7.2 0 0 307.51 132.86   L 307.51 128.95   A 0.65 0.65 0.0 0 0 307.03 128.32   Q 301.88 126.89 298.77 131.30   A 0.24 0.24 0.0 0 1 298.33 131.16"/>
<path stroke="#87c1e9" vector-effect="non-scaling-stroke" d="   M 326.39 149.84   L 326.39 151.54   A 0.61 0.60 -0.0 0 0 327.00 152.14   L 330.03 152.14   A 0.82 0.82 0.0 0 0 330.85 151.32   Q 330.85 143.72 330.87 138.44   C 330.89 133.02 329.54 129.30 324.01 128.22   C 318.37 127.12 311.92 128.61 310.29 135.00   A 0.32 0.32 0.0 0 0 310.60 135.40   L 314.83 135.40   A 0.35 0.35 0.0 0 0 315.16 135.16   Q 316.63 131.06 322.77 132.12   A 3.65 3.64 -3.8 0 1 325.62 134.60   L 326.05 135.93   A 1.48 1.48 0.0 0 1 324.59 137.85   C 319.96 137.70 313.06 137.81 310.51 142.37   C 308.74 145.54 309.48 150.26 313.21 151.82   C 317.65 153.69 322.00 152.75 325.76 149.55   A 0.38 0.38 0.0 0 1 326.39 149.84"/>
<path stroke="#87c1e9" vector-effect="non-scaling-stroke" d="   M 341.11 130.64   L 341.11 129.26   A 0.68 0.67 -90.0 0 0 340.44 128.58   L 336.98 128.58   A 0.67 0.66 -90.0 0 0 336.32 129.25   L 336.32 151.58   A 0.54 0.53 -90.0 0 0 336.85 152.12   L 340.65 152.12   A 0.52 0.51 90.0 0 0 341.16 151.60   Q 341.15 145.31 341.13 139.17   C 341.10 130.69 352.11 129.00 352.18 137.75   Q 352.21 141.95 352.22 151.65   A 0.44 0.43 90.0 0 0 352.65 152.09   L 356.58 152.09   A 0.42 0.42 0.0 0 0 357.00 151.68   Q 357.26 139.60 356.80 135.17   C 355.98 127.14 346.72 125.85 341.76 130.91   A 0.38 0.38 0.0 0 1 341.11 130.64"/>
<path stroke="#87c1e9" vector-effect="non-scaling-stroke" d="   M 269.54 133.29   Q 262.05 142.34 257.28 148.23   Q 256.47 149.22 256.88 151.63   A 0.59 0.58 -4.6 0 0 257.46 152.12   L 276.91 152.12   A 0.46 0.46 0.0 0 0 277.37 151.66   L 277.37 148.59   A 0.44 0.43 -90.0 0 0 276.94 148.15   L 263.73 148.15   A 0.29 0.29 0.0 0 1 263.51 147.68   L 276.49 131.92   A 0.71 0.65 -27.7 0 0 276.64 131.50   L 276.64 129.13   A 0.53 0.53 0.0 0 0 276.11 128.60   L 257.74 128.60   A 0.48 0.48 0.0 0 0 257.26 129.08   L 257.26 132.10   A 0.44 0.44 0.0 0 0 257.70 132.54   L 269.18 132.54   A 0.46 0.46 0.0 0 1 269.54 133.29"/>
<path stroke="#87c1e9" vector-effect="non-scaling-stroke" d="   M 287.06 129.00   A 0.41 0.41 0.0 0 0 286.65 128.59   L 282.63 128.59   A 0.41 0.41 0.0 0 0 282.22 129.00   L 282.22 151.70   A 0.41 0.41 0.0 0 0 282.63 152.11   L 286.65 152.11   A 0.41 0.41 0.0 0 0 287.06 151.70   L 287.06 129.00"/>
<path stroke="#87c1e9" vector-effect="non-scaling-stroke" d="   M 379.74 128.98   A 0.39 0.39 0.0 0 0 379.35 128.59   L 375.29 128.59   A 0.39 0.39 0.0 0 0 374.90 128.98   L 374.90 151.74   A 0.39 0.39 0.0 0 0 375.29 152.13   L 379.35 152.13   A 0.39 0.39 0.0 0 0 379.74 151.74   L 379.74 128.98"/>
<path stroke="#87c1e9" vector-effect="non-scaling-stroke" d="   M 402.11 150.06   L 402.11 151.44   A 0.68 0.67 -89.8 0 0 402.77 152.13   L 406.23 152.14   A 0.67 0.66 -89.8 0 0 406.90 151.47   L 406.98 129.14   A 0.54 0.53 -89.8 0 0 406.46 128.59   L 402.65 128.58   A 0.52 0.51 -89.8 0 0 402.14 129.10   Q 402.13 135.39 402.12 141.53   C 402.12 150.01 391.10 151.66 391.06 142.91   Q 391.05 138.71 391.08 129.00   A 0.44 0.43 -89.8 0 0 390.65 128.56   L 386.72 128.55   A 0.42 0.42 0.0 0 0 386.30 128.96   Q 385.99 141.04 386.43 145.47   C 387.22 153.51 396.48 154.83 401.46 149.79   A 0.38 0.38 0.0 0 1 402.11 150.06"/>
<path stroke="#80a9ca" vector-effect="non-scaling-stroke" d="   M 145.62 112.14   C 146.41 126.38 149.63 144.39 166.98 146.52   C 176.54 147.69 191.56 146.23 195.72 135.95   C 199.86 125.69 199.25 108.10 186.41 103.76   C 174.19 99.63 157.21 100.58 146.81 109.38   A 3.38 3.36 68.5 0 0 145.62 112.14"/>
<path stroke="#87c1e9" vector-effect="non-scaling-stroke" d="   M 325.40 141.21   Q 320.13 141.42 319.29 141.54   C 316.47 141.95 313.62 143.81 314.75 146.92   C 315.83 149.87 320.54 149.22 322.68 147.96   Q 326.25 145.85 326.06 141.82   A 0.64 0.64 0.0 0 0 325.40 141.21"/>
</g>
<path xmlns="http://www.w3.org/2000/svg" fill="#f4f2ee" d="   M 472.00 0.00   L 472.00 270.00   L 0.00 270.00   L 0.00 0.00   L 472.00 0.00   Z   M 128.00 75.15   A 19.25 19.25 0.0 0 0 108.75 55.90   A 19.25 19.25 0.0 0 0 89.50 75.15   A 19.25 19.25 0.0 0 0 108.75 94.40   A 19.25 19.25 0.0 0 0 128.00 75.15   Z   M 206.34 96.62   Q 197.35 87.04 183.80 84.92   C 164.12 81.85 145.88 85.81 131.37 99.62   C 129.75 101.17 128.14 103.58 128.10 105.67   C 127.61 134.49 136.80 163.75 171.23 164.32   Q 184.30 164.54 194.10 160.29   Q 210.60 153.14 214.31 135.04   C 216.89 122.40 215.31 106.19 206.34 96.62   Z   M 114.59 200.51   C 112.29 199.03 111.38 198.32 110.72 195.84   Q 108.18 186.28 107.09 175.48   C 104.89 153.82 104.36 130.22 104.40 109.21   Q 104.41 104.45 103.35 102.46   C 98.54 93.45 85.30 96.60 85.21 106.51   Q 84.91 140.16 87.23 170.27   C 88.01 180.38 89.45 192.08 92.46 201.83   C 94.51 208.44 97.98 214.83 104.61 217.08   C 114.68 220.50 122.82 209.44 115.42 201.22   A 4.28 4.19 84.9 0 0 114.59 200.51   Z   M 367.90 119.40   A 0.43 0.43 0.0 0 0 367.47 118.97   L 363.53 118.97   A 0.43 0.43 0.0 0 0 363.10 119.40   L 363.10 151.68   A 0.43 0.43 0.0 0 0 363.53 152.11   L 367.47 152.11   A 0.43 0.43 0.0 0 0 367.90 151.68   L 367.90 119.40   Z   M 287.96 122.42   A 3.31 3.31 0.0 0 0 284.65 119.11   A 3.31 3.31 0.0 0 0 281.34 122.42   A 3.31 3.31 0.0 0 0 284.65 125.73   A 3.31 3.31 0.0 0 0 287.96 122.42   Z   M 380.64 122.43   A 3.31 3.31 0.0 0 0 377.33 119.12   A 3.31 3.31 0.0 0 0 374.02 122.43   A 3.31 3.31 0.0 0 0 377.33 125.74   A 3.31 3.31 0.0 0 0 380.64 122.43   Z   M 298.33 131.16   L 298.33 129.15   A 0.56 0.56 0.0 0 0 297.77 128.59   L 294.16 128.59   A 0.61 0.61 0.0 0 0 293.55 129.20   L 293.55 151.73   A 0.40 0.39 0.0 0 0 293.95 152.12   L 297.96 152.12   A 0.39 0.38 0.8 0 0 298.35 151.75   Q 298.49 147.52 298.34 143.52   C 298.10 137.18 299.33 131.35 307.04 133.22   A 0.38 0.37 7.2 0 0 307.51 132.86   L 307.51 128.95   A 0.65 0.65 0.0 0 0 307.03 128.32   Q 301.88 126.89 298.77 131.30   A 0.24 0.24 0.0 0 1 298.33 131.16   Z   M 326.39 149.84   L 326.39 151.54   A 0.61 0.60 -0.0 0 0 327.00 152.14   L 330.03 152.14   A 0.82 0.82 0.0 0 0 330.85 151.32   Q 330.85 143.72 330.87 138.44   C 330.89 133.02 329.54 129.30 324.01 128.22   C 318.37 127.12 311.92 128.61 310.29 135.00   A 0.32 0.32 0.0 0 0 310.60 135.40   L 314.83 135.40   A 0.35 0.35 0.0 0 0 315.16 135.16   Q 316.63 131.06 322.77 132.12   A 3.65 3.64 -3.8 0 1 325.62 134.60   L 326.05 135.93   A 1.48 1.48 0.0 0 1 324.59 137.85   C 319.96 137.70 313.06 137.81 310.51 142.37   C 308.74 145.54 309.48 150.26 313.21 151.82   C 317.65 153.69 322.00 152.75 325.76 149.55   A 0.38 0.38 0.0 0 1 326.39 149.84   Z   M 341.11 130.64   L 341.11 129.26   A 0.68 0.67 -90.0 0 0 340.44 128.58   L 336.98 128.58   A 0.67 0.66 -90.0 0 0 336.32 129.25   L 336.32 151.58   A 0.54 0.53 -90.0 0 0 336.85 152.12   L 340.65 152.12   A 0.52 0.51 90.0 0 0 341.16 151.60   Q 341.15 145.31 341.13 139.17   C 341.10 130.69 352.11 129.00 352.18 137.75   Q 352.21 141.95 352.22 151.65   A 0.44 0.43 90.0 0 0 352.65 152.09   L 356.58 152.09   A 0.42 0.42 0.0 0 0 357.00 151.68   Q 357.26 139.60 356.80 135.17   C 355.98 127.14 346.72 125.85 341.76 130.91   A 0.38 0.38 0.0 0 1 341.11 130.64   Z   M 269.54 133.29   Q 262.05 142.34 257.28 148.23   Q 256.47 149.22 256.88 151.63   A 0.59 0.58 -4.6 0 0 257.46 152.12   L 276.91 152.12   A 0.46 0.46 0.0 0 0 277.37 151.66   L 277.37 148.59   A 0.44 0.43 -90.0 0 0 276.94 148.15   L 263.73 148.15   A 0.29 0.29 0.0 0 1 263.51 147.68   L 276.49 131.92   A 0.71 0.65 -27.7 0 0 276.64 131.50   L 276.64 129.13   A 0.53 0.53 0.0 0 0 276.11 128.60   L 257.74 128.60   A 0.48 0.48 0.0 0 0 257.26 129.08   L 257.26 132.10   A 0.44 0.44 0.0 0 0 257.70 132.54   L 269.18 132.54   A 0.46 0.46 0.0 0 1 269.54 133.29   Z   M 287.06 129.00   A 0.41 0.41 0.0 0 0 286.65 128.59   L 282.63 128.59   A 0.41 0.41 0.0 0 0 282.22 129.00   L 282.22 151.70   A 0.41 0.41 0.0 0 0 282.63 152.11   L 286.65 152.11   A 0.41 0.41 0.0 0 0 287.06 151.70   L 287.06 129.00   Z   M 379.74 128.98   A 0.39 0.39 0.0 0 0 379.35 128.59   L 375.29 128.59   A 0.39 0.39 0.0 0 0 374.90 128.98   L 374.90 151.74   A 0.39 0.39 0.0 0 0 375.29 152.13   L 379.35 152.13   A 0.39 0.39 0.0 0 0 379.74 151.74   L 379.74 128.98   Z   M 402.11 150.06   L 402.11 151.44   A 0.68 0.67 -89.8 0 0 402.77 152.13   L 406.23 152.14   A 0.67 0.66 -89.8 0 0 406.90 151.47   L 406.98 129.14   A 0.54 0.53 -89.8 0 0 406.46 128.59   L 402.65 128.58   A 0.52 0.51 -89.8 0 0 402.14 129.10   Q 402.13 135.39 402.12 141.53   C 402.12 150.01 391.10 151.66 391.06 142.91   Q 391.05 138.71 391.08 129.00   A 0.44 0.43 -89.8 0 0 390.65 128.56   L 386.72 128.55   A 0.42 0.42 0.0 0 0 386.30 128.96   Q 385.99 141.04 386.43 145.47   C 387.22 153.51 396.48 154.83 401.46 149.79   A 0.38 0.38 0.0 0 1 402.11 150.06   Z"/>
<circle xmlns="http://www.w3.org/2000/svg" fill="#88c9ad" cx="108.75" cy="75.15" r="19.25"/>
<path xmlns="http://www.w3.org/2000/svg" fill="#0b5fa5" d="   M 206.34 96.62   C 215.31 106.19 216.89 122.40 214.31 135.04   Q 210.60 153.14 194.10 160.29   Q 184.30 164.54 171.23 164.32   C 136.80 163.75 127.61 134.49 128.10 105.67   C 128.14 103.58 129.75 101.17 131.37 99.62   C 145.88 85.81 164.12 81.85 183.80 84.92   Q 197.35 87.04 206.34 96.62   Z   M 145.62 112.14   C 146.41 126.38 149.63 144.39 166.98 146.52   C 176.54 147.69 191.56 146.23 195.72 135.95   C 199.86 125.69 199.25 108.10 186.41 103.76   C 174.19 99.63 157.21 100.58 146.81 109.38   A 3.38 3.36 68.5 0 0 145.62 112.14   Z"/>
<path xmlns="http://www.w3.org/2000/svg" fill="#1a8fe3" d="   M 110.72 195.84   C 111.38 198.32 112.29 199.03 114.59 200.51   A 4.28 4.19 84.9 0 1 115.42 201.22   C 122.82 209.44 114.68 220.50 104.61 217.08   C 97.98 214.83 94.51 208.44 92.46 201.83   C 89.45 192.08 88.01 180.38 87.23 170.27   Q 84.91 140.16 85.21 106.51   C 85.30 96.60 98.54 93.45 103.35 102.46   Q 104.41 104.45 104.40 109.21   C 104.36 130.22 104.89 153.82 107.09 175.48   Q 108.18 186.28 110.72 195.84   Z"/>
<path xmlns="http://www.w3.org/2000/svg" fill="#f4f2ee" d="   M 145.62 112.14   A 3.38 3.36 68.5 0 1 146.81 109.38   C 157.21 100.58 174.19 99.63 186.41 103.76   C 199.25 108.10 199.86 125.69 195.72 135.95   C 191.56 146.23 176.54 147.69 166.98 146.52   C 149.63 144.39 146.41 126.38 145.62 112.14   Z"/>
<rect xmlns="http://www.w3.org/2000/svg" fill="#1a8fe3" x="363.10" y="118.97" width="4.80" height="33.14" rx="0.43"/>
<circle xmlns="http://www.w3.org/2000/svg" fill="#1a8fe3" cx="284.65" cy="122.42" r="3.31"/>
<circle xmlns="http://www.w3.org/2000/svg" fill="#1a8fe3" cx="377.33" cy="122.43" r="3.31"/>
<path xmlns="http://www.w3.org/2000/svg" fill="#1a8fe3" d="   M 298.77 131.30   Q 301.88 126.89 307.03 128.32   A 0.65 0.65 0.0 0 1 307.51 128.95   L 307.51 132.86   A 0.38 0.37 7.2 0 1 307.04 133.22   C 299.33 131.35 298.10 137.18 298.34 143.52   Q 298.49 147.52 298.35 151.75   A 0.39 0.38 0.8 0 1 297.96 152.12   L 293.95 152.12   A 0.40 0.39 0.0 0 1 293.55 151.73   L 293.55 129.20   A 0.61 0.61 0.0 0 1 294.16 128.59   L 297.77 128.59   A 0.56 0.56 0.0 0 1 298.33 129.15   L 298.33 131.16   A 0.24 0.24 0.0 0 0 298.77 131.30   Z"/>
<path xmlns="http://www.w3.org/2000/svg" fill="#1a8fe3" d="   M 325.76 149.55   C 322.00 152.75 317.65 153.69 313.21 151.82   C 309.48 150.26 308.74 145.54 310.51 142.37   C 313.06 137.81 319.96 137.70 324.59 137.85   A 1.48 1.48 0.0 0 0 326.05 135.93   L 325.62 134.60   A 3.65 3.64 -3.8 0 0 322.77 132.12   Q 316.63 131.06 315.16 135.16   A 0.35 0.35 0.0 0 1 314.83 135.40   L 310.60 135.40   A 0.32 0.32 0.0 0 1 310.29 135.00   C 311.92 128.61 318.37 127.12 324.01 128.22   C 329.54 129.30 330.89 133.02 330.87 138.44   Q 330.85 143.72 330.85 151.32   A 0.82 0.82 0.0 0 1 330.03 152.14   L 327.00 152.14   A 0.61 0.60 -0.0 0 1 326.39 151.54   L 326.39 149.84   A 0.38 0.38 0.0 0 0 325.76 149.55   Z   M 325.40 141.21   Q 320.13 141.42 319.29 141.54   C 316.47 141.95 313.62 143.81 314.75 146.92   C 315.83 149.87 320.54 149.22 322.68 147.96   Q 326.25 145.85 326.06 141.82   A 0.64 0.64 0.0 0 0 325.40 141.21   Z"/>
<path xmlns="http://www.w3.org/2000/svg" fill="#1a8fe3" d="   M 341.76 130.91   C 346.72 125.85 355.98 127.14 356.80 135.17   Q 357.26 139.60 357.00 151.68   A 0.42 0.42 0.0 0 1 356.58 152.09   L 352.65 152.09   A 0.44 0.43 90.0 0 1 352.22 151.65   Q 352.21 141.95 352.18 137.75   C 352.11 129.00 341.10 130.69 341.13 139.17   Q 341.15 145.31 341.16 151.60   A 0.52 0.51 90.0 0 1 340.65 152.12   L 336.85 152.12   A 0.54 0.53 90.0 0 1 336.32 151.58   L 336.32 129.25   A 0.67 0.66 -90.0 0 1 336.98 128.58   L 340.44 128.58   A 0.68 0.67 90.0 0 1 341.11 129.26   L 341.11 130.64   A 0.38 0.38 0.0 0 0 341.76 130.91   Z"/>
<path xmlns="http://www.w3.org/2000/svg" fill="#1a8fe3" d="   M 269.18 132.54   L 257.70 132.54   A 0.44 0.44 0.0 0 1 257.26 132.10   L 257.26 129.08   A 0.48 0.48 0.0 0 1 257.74 128.60   L 276.11 128.60   A 0.53 0.53 0.0 0 1 276.64 129.13   L 276.64 131.50   A 0.71 0.65 -27.7 0 1 276.49 131.92   L 263.51 147.68   A 0.29 0.29 0.0 0 0 263.73 148.15   L 276.94 148.15   A 0.44 0.43 90.0 0 1 277.37 148.59   L 277.37 151.66   A 0.46 0.46 0.0 0 1 276.91 152.12   L 257.46 152.12   A 0.59 0.58 -4.6 0 1 256.88 151.63   Q 256.47 149.22 257.28 148.23   Q 262.05 142.34 269.54 133.29   A 0.46 0.46 0.0 0 0 269.18 132.54   Z"/>
<rect xmlns="http://www.w3.org/2000/svg" fill="#1a8fe3" x="282.22" y="128.59" width="4.84" height="23.52" rx="0.41"/>
<rect xmlns="http://www.w3.org/2000/svg" fill="#1a8fe3" x="374.90" y="128.59" width="4.84" height="23.54" rx="0.39"/>
<path xmlns="http://www.w3.org/2000/svg" fill="#1a8fe3" d="   M 402.11 150.06   A 0.38 0.38 0.0 0 0 401.46 149.79   C 396.48 154.83 387.22 153.51 386.43 145.47   Q 385.99 141.04 386.30 128.96   A 0.42 0.42 0.0 0 1 386.72 128.55   L 390.65 128.56   A 0.44 0.43 -89.8 0 1 391.08 129.00   Q 391.05 138.71 391.06 142.91   C 391.10 151.66 402.12 150.01 402.12 141.53   Q 402.13 135.39 402.14 129.10   A 0.52 0.51 -89.8 0 1 402.65 128.58   L 406.46 128.59   A 0.54 0.53 -89.8 0 1 406.98 129.14   L 406.90 151.47   A 0.67 0.66 -89.8 0 1 406.23 152.14   L 402.77 152.13   A 0.68 0.67 -89.8 0 1 402.11 151.44   L 402.11 150.06   Z"/>
<path xmlns="http://www.w3.org/2000/svg" fill="#f4f2ee" d="   M 326.06 141.82   Q 326.25 145.85 322.68 147.96   C 320.54 149.22 315.83 149.87 314.75 146.92   C 313.62 143.81 316.47 141.95 319.29 141.54   Q 320.13 141.42 325.40 141.21   A 0.64 0.64 0.0 0 1 326.06 141.82   Z"/>
</g></g></g></g></svg>